<svg xmlns="http://www.w3.org/2000/svg" viewBox="0 0 7410 3900">
    <rect width="7410" height="3900" fill="#b22234"/>
    <rect width="7410" height="300" y="300" fill="#fff"/>
    <rect width="7410" height="300" y="900" fill="#fff"/>
    <rect width="7410" height="300" y="1500" fill="#fff"/>
    <rect width="7410" height="300" y="2100" fill="#fff"/>
    <rect width="7410" height="300" y="2700" fill="#fff"/>
    <rect width="7410" height="300" y="3300" fill="#fff"/>
    <rect width="2964" height="2100" fill="#3c3b6e"/>
    <g fill="#fff">
        <g id="s18">
            <polygon points="247,90 95,90 171,8 119,155 199,155"/>
            <polygon points="247,270 95,270 171,188 119,335 199,335"/>
            <polygon points="423,180 271,180 347,98 295,245 375,245"/>
            <polygon points="95,360 247,360 171,442 223,295 143,295"/>
            <polygon points="319,360 167,360 243,278 191,425 271,425"/>
        </g>
        <use href="#s18" x="370" y="210"/>
        <use href="#s18" x="740" y="0"/>
        <use href="#s18" x="1110" y="210"/>
        <use href="#s18" x="1480" y="0"/>
        <use href="#s18" x="1850" y="210"/>
        <use href="#s18" x="2220" y="0"/>
        <use href="#s18" x="2590" y="210"/>
        <use href="#s18" x="0" y="420"/>
        <use href="#s18" x="370" y="630"/>
        <use href="#s18" x="740" y="420"/>
        <use href="#s18" x="1110" y="630"/>
        <use href="#s18" x="1480" y="420"/>
        <use href="#s18" x="1850" y="630"/>
        <use href="#s18" x="2220" y="420"/>
        <use href="#s18" x="2590" y="630"/>
        <use href="#s18" x="0" y="840"/>
        <use href="#s18" x="370" y="1050"/>
        <use href="#s18" x="740" y="840"/>
        <use href="#s18" x="1110" y="1050"/>
        <use href="#s18" x="1480" y="840"/>
        <use href="#s18" x="1850" y="1050"/>
        <use href="#s18" x="2220" y="840"/>
        <use href="#s18" x="2590" y="1050"/>
        <use href="#s18" x="0" y="1260"/>
        <use href="#s18" x="370" y="1470"/>
        <use href="#s18" x="740" y="1260"/>
        <use href="#s18" x="1110" y="1470"/>
        <use href="#s18" x="1480" y="1260"/>
        <use href="#s18" x="1850" y="1470"/>
        <use href="#s18" x="2220" y="1260"/>
        <use href="#s18" x="2590" y="1470"/>
    </g>
</svg>